<svg id="svg" version="1.1" xmlns="http://www.w3.org/2000/svg" xmlns:xlink="http://www.w3.org/1999/xlink" width="400" height="400" viewBox="0, 0, 400,400"><g id="svgg"><path id="path0" d="M83.810 72.190 C 69.448 72.930,63.611 87.940,69.435 109.157 C 71.095 115.203,75.730 127.681,79.478 136.190 C 80.979 139.600,85.774 149.344,87.866 153.238 C 89.895 157.014,91.523 159.973,93.679 163.810 C 94.887 165.957,96.255 168.400,96.720 169.238 C 97.185 170.076,97.969 171.448,98.463 172.286 C 98.957 173.124,99.965 174.838,100.704 176.095 C 101.442 177.352,102.997 179.981,104.158 181.936 C 106.737 186.276,110.824 193.316,111.758 195.027 C 119.591 209.378,127.903 217.804,137.247 220.865 C 146.962 224.047,156.174 222.216,163.619 215.623 C 163.881 215.391,164.430 215.029,164.839 214.820 C 166.188 214.128,169.773 211.959,171.970 210.505 C 174.743 208.670,178.196 207.677,180.283 208.115 C 183.648 208.822,186.879 210.191,192.435 213.264 C 201.010 218.005,205.164 219.443,210.220 219.417 C 214.444 219.396,217.920 219.119,219.143 218.707 C 219.771 218.495,220.801 218.274,221.432 218.216 C 226.848 217.718,236.225 211.525,250.762 198.844 C 256.620 193.735,258.522 192.056,265.633 185.721 C 269.920 181.901,275.094 177.272,277.130 175.435 C 279.166 173.598,280.984 171.960,281.170 171.794 C 293.961 160.393,306.781 146.747,314.887 135.905 C 333.990 110.353,337.543 94.555,326.556 84.007 C 315.458 73.353,288.091 75.502,266.095 88.755 C 248.300 99.478,225.148 121.070,216.584 134.932 L 216.126 135.674 214.491 133.964 C 212.695 132.086,210.191 129.842,208.583 128.670 C 208.014 128.255,207.242 127.630,206.869 127.282 C 195.197 116.400,171.803 123.515,164.777 140.085 C 164.507 140.723,164.033 141.642,163.725 142.128 L 163.164 143.011 162.509 141.744 C 159.579 136.069,153.282 126.308,147.807 118.952 C 142.152 111.355,134.581 103.360,124.188 94.012 C 123.613 93.494,122.114 92.117,120.857 90.951 C 110.819 81.639,105.881 78.201,96.790 74.193 C 92.308 72.217,90.051 71.869,83.810 72.190 M85.683 103.612 C 85.857 103.703,86.280 103.881,86.621 104.008 C 87.375 104.288,88.370 105.174,89.042 106.164 C 89.506 106.848,89.686 107.248,90.292 108.952 C 90.422 109.319,90.689 109.971,90.884 110.402 C 91.079 110.832,91.238 111.255,91.238 111.342 C 91.238 111.428,91.410 111.869,91.619 112.321 C 91.987 113.114,92.482 114.225,93.089 115.619 C 93.249 115.986,93.540 116.603,93.737 116.990 C 93.934 117.378,94.095 117.860,94.095 118.062 C 94.095 118.264,94.218 118.532,94.369 118.657 C 94.519 118.781,94.702 119.156,94.775 119.489 C 94.848 119.823,95.068 120.394,95.263 120.759 C 95.459 121.124,95.619 121.564,95.619 121.736 C 95.619 121.908,95.748 122.155,95.905 122.286 C 96.062 122.416,96.190 122.664,96.190 122.836 C 96.190 123.008,96.362 123.468,96.571 123.859 C 96.781 124.250,96.952 124.668,96.952 124.788 C 96.952 124.908,97.133 125.401,97.354 125.884 C 97.575 126.367,97.906 127.105,98.090 127.524 C 98.542 128.553,98.929 129.414,99.512 130.685 C 99.780 131.271,100.000 131.839,100.000 131.947 C 100.000 132.055,100.123 132.246,100.273 132.371 C 100.424 132.496,100.601 132.843,100.667 133.143 C 100.733 133.443,100.909 133.790,101.060 133.915 C 101.210 134.040,101.333 134.297,101.333 134.486 C 101.333 134.675,101.451 134.947,101.594 135.091 C 101.737 135.234,101.919 135.561,101.997 135.818 C 102.076 136.075,102.249 136.414,102.381 136.571 C 102.513 136.729,102.685 137.071,102.762 137.333 C 102.839 137.595,103.015 137.938,103.152 138.096 C 103.290 138.253,103.496 138.596,103.611 138.857 C 103.726 139.119,104.160 139.933,104.575 140.667 C 104.989 141.400,105.464 142.257,105.630 142.571 C 105.795 142.886,106.139 143.486,106.393 143.905 C 106.647 144.324,106.988 144.924,107.151 145.238 C 107.313 145.552,107.826 146.410,108.289 147.143 C 108.752 147.876,109.262 148.733,109.422 149.048 C 109.582 149.362,109.884 149.876,110.093 150.190 C 110.301 150.505,110.579 150.976,110.710 151.238 C 110.841 151.500,111.399 152.382,111.950 153.198 C 112.501 154.014,112.952 154.758,112.952 154.851 C 112.952 154.944,113.060 155.134,113.190 155.272 C 113.626 155.732,114.476 157.065,114.476 157.286 C 114.476 157.407,114.585 157.573,114.718 157.657 C 114.850 157.741,115.386 158.452,115.908 159.238 C 116.982 160.856,116.966 160.834,117.616 161.647 C 117.880 161.976,118.095 162.336,118.095 162.447 C 118.095 162.557,118.203 162.716,118.334 162.800 C 118.465 162.884,118.827 163.338,119.137 163.810 C 119.735 164.717,120.077 165.145,120.619 165.668 C 120.802 165.845,120.952 166.070,120.952 166.169 C 120.952 166.268,121.081 166.485,121.238 166.651 C 121.906 167.354,123.238 169.133,123.238 169.320 C 123.238 169.432,123.311 169.524,123.400 169.524 C 123.489 169.524,123.789 170.060,124.067 170.714 C 125.561 174.234,123.782 177.808,120.058 178.764 C 118.618 179.134,118.778 179.147,116.510 178.459 C 115.502 178.153,113.808 176.655,112.571 174.974 C 112.205 174.476,111.733 173.864,111.524 173.615 C 111.314 173.365,110.992 172.964,110.807 172.723 C 109.288 170.747,108.952 170.273,108.952 170.110 C 108.952 170.008,108.842 169.855,108.707 169.771 C 108.573 169.688,108.153 169.148,107.774 168.571 C 107.396 167.995,106.820 167.191,106.496 166.783 C 106.171 166.376,105.905 165.926,105.905 165.783 C 105.905 165.641,105.824 165.524,105.725 165.524 C 105.626 165.524,105.433 165.321,105.296 165.074 C 105.159 164.827,104.792 164.248,104.480 163.788 C 103.651 162.567,103.459 162.249,103.198 161.667 C 103.070 161.379,102.903 161.143,102.829 161.143 C 102.755 161.143,102.415 160.650,102.074 160.048 C 101.733 159.445,101.396 158.910,101.325 158.857 C 101.254 158.805,101.053 158.505,100.878 158.190 C 100.703 157.876,100.391 157.362,100.184 157.048 C 99.978 156.733,99.674 156.219,99.510 155.905 C 99.346 155.590,99.025 155.023,98.796 154.643 C 97.513 152.511,96.023 149.940,95.524 148.995 C 95.210 148.401,94.845 147.800,94.715 147.658 C 94.584 147.517,94.424 147.194,94.361 146.939 C 94.297 146.684,94.177 146.476,94.095 146.476 C 94.013 146.476,93.804 146.155,93.631 145.762 C 93.458 145.369,92.807 144.105,92.185 142.952 C 91.563 141.800,90.967 140.643,90.861 140.381 C 90.754 140.119,90.581 139.776,90.476 139.619 C 90.371 139.462,90.199 139.119,90.095 138.857 C 89.990 138.595,89.819 138.252,89.713 138.095 C 89.608 137.938,89.474 137.681,89.415 137.524 C 89.357 137.367,89.131 136.852,88.914 136.381 C 88.697 135.910,88.367 135.181,88.182 134.762 C 87.996 134.343,87.669 133.614,87.455 133.143 C 86.425 130.869,86.286 130.526,86.286 130.249 C 86.286 130.085,86.157 129.845,86.000 129.714 C 85.843 129.584,85.714 129.336,85.714 129.164 C 85.714 128.992,85.543 128.532,85.333 128.141 C 85.124 127.750,84.952 127.332,84.952 127.212 C 84.952 127.092,84.781 126.620,84.571 126.164 C 84.362 125.707,84.019 124.960,83.810 124.503 C 83.600 124.046,83.429 123.596,83.429 123.503 C 83.429 123.410,83.262 122.990,83.058 122.571 C 82.853 122.152,82.502 121.381,82.277 120.857 C 82.052 120.333,81.736 119.605,81.575 119.238 C 81.414 118.871,81.131 118.229,80.947 117.810 C 80.763 117.390,80.432 116.653,80.211 116.170 C 79.990 115.687,79.810 115.212,79.810 115.115 C 79.810 115.017,79.638 114.601,79.429 114.190 C 79.219 113.780,79.048 113.287,79.048 113.096 C 79.048 112.905,78.898 112.521,78.716 112.242 C 78.118 111.330,78.241 107.790,78.915 106.526 C 80.195 104.124,83.743 102.596,85.683 103.612 M132.294 187.327 C 137.684 190.985,133.910 199.693,127.947 197.356 C 127.410 197.145,127.321 197.083,126.473 196.330 C 124.502 194.581,124.381 190.891,126.232 188.986 C 126.366 188.848,126.476 188.662,126.476 188.572 C 126.476 186.927,130.451 186.076,132.294 187.327 " stroke="none" fill="#7484d4" fill-rule="evenodd"></path><path id="path1" d="M179.651 209.052 C 179.424 209.313,179.238 209.612,179.238 209.716 C 179.238 209.820,179.104 209.905,178.941 209.905 C 178.778 209.905,178.693 209.983,178.752 210.079 C 178.811 210.175,178.769 210.283,178.657 210.321 C 178.546 210.358,178.430 210.515,178.400 210.670 C 178.369 210.825,178.242 211.203,178.117 211.509 C 177.992 211.815,177.935 212.184,177.990 212.328 C 178.051 212.486,178.007 212.540,177.882 212.462 C 177.743 212.376,177.716 212.468,177.802 212.738 C 177.884 212.995,177.848 213.143,177.705 213.143 C 177.567 213.143,177.515 213.329,177.571 213.624 C 177.622 213.888,177.588 214.151,177.495 214.208 C 177.403 214.265,177.379 214.396,177.442 214.498 C 177.505 214.600,177.456 214.804,177.333 214.952 C 177.211 215.100,177.174 215.324,177.251 215.450 C 177.335 215.586,177.312 215.628,177.193 215.555 C 176.969 215.417,176.674 216.656,176.859 216.956 C 176.923 217.059,176.895 217.143,176.798 217.143 C 176.635 217.143,176.319 218.605,176.282 219.529 C 176.273 219.741,176.220 219.998,176.164 220.100 C 176.108 220.202,176.073 220.564,176.086 220.905 C 176.100 221.245,176.040 221.524,175.954 221.524 C 175.868 221.524,175.800 221.802,175.803 222.143 C 175.812 223.130,175.682 224.641,175.563 224.952 C 175.502 225.110,175.445 225.795,175.436 226.476 C 175.426 227.157,175.372 229.043,175.315 230.667 C 175.258 232.290,175.213 234.005,175.215 234.476 C 175.251 242.684,175.294 245.837,175.373 245.966 C 175.425 246.053,175.502 247.282,175.544 248.699 C 175.586 250.116,175.665 251.349,175.720 251.439 C 175.776 251.528,175.864 252.398,175.916 253.372 C 175.996 254.885,176.104 255.905,176.182 255.905 C 176.193 255.905,176.239 256.419,176.284 257.048 C 176.328 257.676,176.419 258.662,176.486 259.238 C 176.553 259.814,176.617 260.479,176.628 260.714 C 176.639 260.950,176.695 261.143,176.752 261.143 C 176.810 261.143,176.841 261.529,176.821 262.000 C 176.802 262.471,176.851 262.857,176.931 262.857 C 177.011 262.857,177.059 263.264,177.036 263.762 C 177.013 264.260,177.045 264.750,177.106 264.852 C 177.167 264.954,177.194 265.361,177.166 265.757 C 177.136 266.171,177.200 266.476,177.317 266.476 C 177.447 266.476,177.482 266.815,177.414 267.426 C 177.356 267.949,177.370 268.477,177.447 268.601 C 177.523 268.724,177.619 269.304,177.659 269.889 C 177.819 272.216,177.856 272.670,177.894 272.762 C 177.916 272.814,177.968 273.671,178.010 274.667 C 178.148 277.958,178.173 278.286,178.277 278.285 C 178.334 278.285,178.352 278.757,178.316 279.333 C 178.280 279.909,178.323 280.381,178.411 280.381 C 178.499 280.381,178.581 280.874,178.592 281.476 C 178.603 282.079,178.668 283.043,178.736 283.619 C 178.804 284.195,178.889 285.010,178.924 285.429 C 178.960 285.848,179.011 286.233,179.038 286.286 C 179.112 286.427,179.205 287.327,179.335 289.143 C 179.398 290.033,179.522 290.787,179.610 290.819 C 179.697 290.850,179.726 291.041,179.673 291.244 C 179.620 291.447,179.639 291.765,179.716 291.950 C 179.793 292.134,179.874 292.629,179.895 293.048 C 179.968 294.473,180.240 296.199,180.409 296.303 C 180.502 296.360,180.528 296.487,180.468 296.585 C 180.337 296.796,179.990 296.823,180.023 296.619 C 180.095 296.161,179.974 295.613,179.821 295.707 C 179.723 295.768,179.646 295.666,179.651 295.480 C 179.666 294.936,178.935 293.130,178.763 293.286 C 178.676 293.364,178.668 293.321,178.743 293.189 C 178.924 292.876,178.462 291.605,178.221 291.754 C 178.113 291.821,178.077 291.709,178.135 291.488 C 178.190 291.279,178.075 290.779,177.879 290.377 C 177.684 289.975,177.524 289.533,177.524 289.395 C 177.524 289.256,177.446 289.143,177.351 289.143 C 177.256 289.143,177.220 288.984,177.271 288.790 C 177.321 288.596,177.243 288.318,177.096 288.171 C 176.845 287.920,176.792 287.818,176.740 287.476 C 176.603 286.584,176.343 285.905,176.138 285.905 C 176.027 285.905,175.987 285.855,176.048 285.793 C 176.200 285.642,175.820 284.551,175.478 284.155 C 175.326 283.978,175.255 283.746,175.322 283.638 C 175.388 283.530,175.289 283.289,175.102 283.102 C 174.915 282.915,174.761 282.676,174.759 282.571 C 174.752 282.146,174.243 280.952,174.069 280.952 C 173.966 280.952,173.935 280.867,174.000 280.762 C 174.065 280.657,174.022 280.571,173.905 280.571 C 173.788 280.571,173.745 280.486,173.810 280.381 C 173.874 280.276,173.855 280.190,173.767 280.190 C 173.612 280.190,172.928 279.164,172.944 278.957 C 172.974 278.584,172.933 278.466,172.801 278.547 C 172.718 278.598,172.637 278.455,172.619 278.229 C 172.602 278.002,172.440 277.708,172.258 277.575 C 172.076 277.442,172.001 277.333,172.092 277.333 C 172.183 277.333,172.076 277.140,171.854 276.905 C 171.476 276.502,171.429 276.407,171.429 276.046 C 171.429 275.966,171.211 275.666,170.945 275.379 C 170.679 275.092,170.513 274.857,170.577 274.857 C 170.739 274.857,169.898 273.692,169.433 273.271 C 169.221 273.080,169.176 272.989,169.333 273.070 C 169.587 273.200,169.587 273.176,169.333 272.852 C 169.176 272.652,168.919 272.323,168.762 272.120 C 168.605 271.918,168.326 271.594,168.143 271.400 C 167.960 271.206,167.815 271.000,167.823 270.942 C 167.850 270.725,166.959 269.746,166.816 269.835 C 166.734 269.886,166.667 269.749,166.667 269.530 C 166.667 269.282,166.488 269.066,166.190 268.952 C 165.929 268.853,165.714 268.721,165.714 268.660 C 165.714 268.599,165.821 268.614,165.952 268.692 C 166.083 268.771,165.976 268.555,165.714 268.212 C 165.452 267.868,165.169 267.616,165.086 267.651 C 165.002 267.686,164.800 267.439,164.636 267.102 C 164.473 266.765,164.246 266.508,164.131 266.531 C 164.016 266.553,163.918 266.445,163.913 266.291 C 163.909 266.137,163.707 265.912,163.464 265.792 C 163.222 265.671,163.008 265.497,162.988 265.405 C 162.968 265.313,162.882 265.262,162.795 265.290 C 162.709 265.319,162.683 265.271,162.737 265.184 C 162.790 265.097,162.566 264.773,162.237 264.465 C 161.908 264.157,161.712 264.025,161.801 264.172 C 161.912 264.356,161.893 264.396,161.741 264.302 C 161.618 264.226,161.560 264.096,161.611 264.013 C 161.663 263.929,161.257 263.485,160.710 263.026 C 160.162 262.567,159.514 261.955,159.268 261.666 C 159.023 261.378,158.731 261.198,158.620 261.267 C 158.504 261.339,158.473 261.302,158.547 261.182 C 158.677 260.973,157.952 260.449,157.653 260.536 C 157.566 260.561,157.541 260.507,157.597 260.416 C 157.721 260.217,156.555 259.314,156.286 259.400 C 156.181 259.433,156.160 259.396,156.239 259.317 C 156.418 259.138,155.838 258.476,155.501 258.476 C 155.364 258.476,155.160 258.305,155.048 258.095 C 154.935 257.886,154.718 257.714,154.565 257.714 C 154.411 257.714,154.286 257.624,154.286 257.513 C 154.286 257.402,154.200 257.364,154.095 257.429 C 153.990 257.493,153.905 257.460,153.905 257.354 C 153.905 257.137,152.745 256.002,152.522 256.001 C 152.443 256.000,152.110 255.745,151.783 255.432 C 151.457 255.120,151.115 254.911,151.023 254.967 C 150.932 255.024,150.857 254.974,150.857 254.857 C 150.857 254.740,150.758 254.705,150.637 254.780 C 150.512 254.857,150.469 254.833,150.536 254.724 C 150.672 254.504,149.066 253.283,148.883 253.467 C 148.816 253.533,148.762 253.487,148.762 253.365 C 148.762 253.243,148.655 253.164,148.524 253.190 C 148.393 253.217,148.306 253.134,148.331 253.007 C 148.359 252.863,148.252 252.820,148.045 252.894 C 147.863 252.960,147.778 252.943,147.856 252.857 C 147.996 252.702,147.457 252.213,147.199 252.261 C 147.125 252.274,146.925 252.114,146.756 251.905 C 146.587 251.695,146.514 251.652,146.595 251.810 C 146.676 251.967,146.461 251.817,146.118 251.476 C 145.775 251.136,145.412 250.857,145.311 250.857 C 145.210 250.857,144.943 250.686,144.718 250.476 C 144.493 250.267,144.218 250.114,144.107 250.137 C 143.996 250.161,143.658 249.948,143.357 249.665 C 143.056 249.382,142.734 249.196,142.643 249.253 C 142.551 249.310,142.476 249.284,142.476 249.195 C 142.476 248.928,141.349 248.349,141.113 248.495 C 140.979 248.577,140.945 248.547,141.026 248.416 C 141.107 248.285,140.953 248.150,140.627 248.069 C 140.334 247.996,139.991 247.801,139.863 247.635 C 139.736 247.469,139.628 247.398,139.625 247.476 C 139.622 247.555,139.441 247.441,139.223 247.223 C 139.006 247.006,138.701 246.876,138.547 246.935 C 138.392 246.995,138.314 246.965,138.374 246.869 C 138.433 246.773,138.288 246.632,138.050 246.557 C 137.813 246.482,137.607 246.454,137.591 246.496 C 137.576 246.537,137.383 246.408,137.163 246.209 C 136.942 246.009,136.762 245.917,136.762 246.004 C 136.762 246.091,136.569 245.985,136.333 245.770 C 135.791 245.274,134.750 244.742,134.605 244.887 C 134.544 244.948,134.356 244.859,134.186 244.689 C 134.016 244.520,133.752 244.381,133.598 244.381 C 133.444 244.381,133.080 244.205,132.790 243.991 C 132.500 243.776,132.075 243.587,131.846 243.569 C 131.616 243.552,131.429 243.465,131.429 243.377 C 131.429 243.288,131.350 243.264,131.254 243.323 C 131.159 243.382,131.050 243.341,131.013 243.231 C 130.977 243.121,130.755 243.016,130.521 242.999 C 130.287 242.981,130.095 242.908,130.095 242.837 C 130.095 242.766,129.962 242.656,129.800 242.594 C 129.605 242.519,129.545 242.561,129.623 242.716 C 129.689 242.846,129.629 242.821,129.490 242.660 C 129.352 242.499,129.078 242.400,128.882 242.440 C 128.680 242.481,128.577 242.431,128.644 242.323 C 128.787 242.090,127.661 241.670,127.359 241.842 C 127.240 241.910,127.210 241.892,127.292 241.802 C 127.469 241.608,125.768 240.897,125.510 241.056 C 125.413 241.116,125.333 241.072,125.333 240.959 C 125.333 240.751,124.736 240.461,124.072 240.347 C 123.875 240.313,123.663 240.216,123.600 240.130 C 123.537 240.045,123.366 239.954,123.219 239.929 C 123.072 239.904,122.674 239.736,122.333 239.556 C 121.993 239.376,121.714 239.284,121.714 239.352 C 121.714 239.420,121.586 239.369,121.429 239.238 C 121.271 239.108,121.143 239.064,121.143 239.141 C 121.143 239.219,120.926 239.140,120.661 238.966 C 120.396 238.793,120.096 238.702,119.995 238.765 C 119.893 238.828,119.810 238.780,119.810 238.658 C 119.810 238.535,119.681 238.485,119.524 238.545 C 119.367 238.605,119.238 238.572,119.238 238.470 C 119.238 238.369,119.074 238.286,118.873 238.286 C 118.672 238.286,118.479 238.218,118.444 238.135 C 118.410 238.052,117.889 237.806,117.289 237.587 C 116.688 237.368,116.242 237.263,116.299 237.354 C 116.355 237.445,116.268 237.468,116.105 237.406 C 115.943 237.344,115.810 237.216,115.810 237.122 C 115.810 237.029,115.643 236.952,115.440 236.952 C 115.236 236.952,115.013 236.859,114.942 236.745 C 114.872 236.631,114.671 236.576,114.497 236.621 C 114.322 236.667,114.076 236.593,113.949 236.458 C 113.822 236.322,113.544 236.245,113.331 236.286 C 113.117 236.327,112.986 236.291,113.039 236.204 C 113.129 236.059,111.740 235.582,111.061 235.525 C 110.896 235.512,110.562 235.392,110.318 235.259 C 110.075 235.127,109.749 235.067,109.594 235.126 C 109.436 235.187,109.365 235.151,109.430 235.045 C 109.536 234.873,109.217 234.803,108.338 234.806 C 108.157 234.806,108.062 234.720,108.128 234.614 C 108.202 234.494,108.057 234.457,107.749 234.516 C 107.475 234.568,107.227 234.543,107.197 234.459 C 107.135 234.285,106.024 234.032,105.382 234.046 C 105.147 234.051,104.995 233.989,105.045 233.909 C 105.125 233.779,104.445 233.615,103.048 233.428 C 102.786 233.393,102.571 233.346,102.571 233.324 C 102.571 233.303,102.400 233.260,102.190 233.230 C 100.888 233.042,100.476 232.975,100.476 232.951 C 100.476 232.866,99.689 232.760,96.667 232.437 C 94.451 232.200,86.021 232.297,86.182 232.557 C 86.250 232.668,85.559 232.743,84.421 232.747 C 84.076 232.748,83.698 232.808,83.581 232.880 C 83.465 232.953,82.975 233.044,82.494 233.083 C 82.013 233.122,81.362 233.231,81.048 233.326 C 80.733 233.420,80.112 233.554,79.666 233.623 C 79.164 233.700,78.903 233.825,78.981 233.951 C 79.051 234.064,79.017 234.099,78.906 234.030 C 78.599 233.841,77.511 234.111,77.653 234.341 C 77.729 234.464,77.657 234.495,77.464 234.421 C 77.293 234.355,76.829 234.442,76.433 234.614 C 76.038 234.786,75.599 234.906,75.457 234.879 C 75.303 234.851,75.255 234.922,75.338 235.055 C 75.433 235.209,75.360 235.242,75.103 235.161 C 74.714 235.037,74.179 235.468,74.063 236.000 C 74.028 236.157,73.923 236.341,73.829 236.409 C 73.734 236.478,73.729 236.688,73.819 236.886 C 73.906 237.079,73.986 237.324,73.995 237.429 C 74.021 237.736,74.720 238.465,74.889 238.361 C 74.974 238.309,74.987 238.413,74.918 238.593 C 74.839 238.798,74.867 238.874,74.994 238.795 C 75.108 238.724,75.184 238.814,75.169 239.002 C 75.155 239.184,75.247 239.313,75.374 239.288 C 75.501 239.263,75.560 239.361,75.504 239.506 C 75.449 239.651,75.580 239.894,75.796 240.045 C 76.011 240.196,76.131 240.377,76.060 240.448 C 75.990 240.518,76.098 240.709,76.300 240.873 C 76.501 241.037,76.538 241.116,76.381 241.048 C 76.224 240.980,76.262 241.059,76.465 241.224 C 76.668 241.389,76.759 241.524,76.667 241.524 C 76.574 241.524,76.665 241.659,76.868 241.824 C 77.072 241.989,77.122 242.064,76.981 241.991 C 76.774 241.884,76.766 241.937,76.940 242.263 C 77.059 242.485,77.236 242.667,77.334 242.667 C 77.432 242.667,77.463 242.795,77.402 242.952 C 77.342 243.110,77.381 243.238,77.488 243.238 C 77.596 243.238,77.741 243.496,77.810 243.811 C 77.879 244.126,78.014 244.336,78.109 244.277 C 78.204 244.219,78.230 244.304,78.168 244.466 C 78.105 244.629,78.154 244.762,78.277 244.762 C 78.399 244.762,78.450 244.841,78.390 244.937 C 78.331 245.033,78.412 245.242,78.570 245.400 C 78.728 245.558,78.857 245.810,78.857 245.960 C 78.857 246.417,79.929 248.387,80.096 248.237 C 80.181 248.159,80.197 248.192,80.129 248.309 C 79.981 248.569,81.249 251.238,81.521 251.238 C 81.627 251.238,81.704 251.302,81.692 251.381 C 81.632 251.759,81.733 252.011,81.903 251.906 C 82.014 251.837,82.040 251.922,81.965 252.117 C 81.881 252.337,81.912 252.399,82.061 252.307 C 82.201 252.221,82.243 252.270,82.177 252.442 C 82.120 252.591,82.185 252.833,82.322 252.980 C 82.459 253.127,82.598 253.374,82.630 253.528 C 82.661 253.683,82.799 253.895,82.934 254.000 C 83.070 254.105,83.185 254.258,83.190 254.342 C 83.216 254.784,83.691 255.597,83.861 255.492 C 83.970 255.424,84.002 255.461,83.932 255.574 C 83.863 255.687,83.931 255.904,84.084 256.057 C 84.238 256.210,84.309 256.390,84.243 256.455 C 84.177 256.521,84.288 256.709,84.490 256.873 C 84.692 257.037,84.729 257.116,84.571 257.048 C 84.342 256.949,84.346 256.974,84.588 257.176 C 84.754 257.315,84.859 257.523,84.820 257.638 C 84.781 257.753,84.881 257.957,85.041 258.090 C 85.202 258.223,85.333 258.482,85.333 258.664 C 85.333 258.847,85.502 259.211,85.708 259.473 C 85.914 259.735,86.030 260.001,85.966 260.065 C 85.903 260.129,85.991 260.236,86.163 260.302 C 86.335 260.368,86.476 260.578,86.476 260.769 C 86.476 260.960,86.608 261.247,86.769 261.408 C 86.930 261.569,87.041 261.725,87.017 261.755 C 86.896 261.906,87.535 263.004,87.689 262.909 C 87.788 262.848,87.809 262.895,87.736 263.013 C 87.594 263.243,88.106 264.385,88.455 264.616 C 88.577 264.696,88.585 264.759,88.476 264.762 C 88.356 264.766,88.358 264.819,88.484 264.908 C 88.593 264.985,89.053 265.796,89.506 266.712 C 89.980 267.668,90.415 268.324,90.528 268.254 C 90.644 268.182,90.668 268.224,90.587 268.356 C 90.439 268.596,91.498 270.473,91.921 270.719 C 92.060 270.801,92.132 270.978,92.080 271.113 C 92.029 271.248,92.182 271.570,92.422 271.828 C 92.661 272.086,92.857 272.424,92.857 272.577 C 92.857 272.731,92.971 272.834,93.109 272.805 C 93.248 272.776,93.307 272.840,93.241 272.948 C 93.175 273.055,93.216 273.143,93.333 273.143 C 93.450 273.143,93.503 273.213,93.450 273.299 C 93.333 273.488,94.023 274.667,94.251 274.667 C 94.340 274.667,94.415 274.774,94.419 274.905 C 94.426 275.191,95.977 277.524,96.160 277.524 C 96.230 277.524,96.402 277.781,96.541 278.096 C 96.681 278.411,96.873 278.620,96.969 278.561 C 97.065 278.502,97.143 278.629,97.143 278.844 C 97.143 279.059,97.314 279.342,97.524 279.473 C 97.733 279.604,97.907 279.797,97.911 279.903 C 97.920 280.182,98.802 281.143,99.050 281.143 C 99.166 281.143,99.213 281.220,99.155 281.313 C 99.097 281.407,99.183 281.535,99.347 281.598 C 99.510 281.660,99.596 281.788,99.538 281.882 C 99.401 282.104,99.897 282.516,100.081 282.332 C 100.159 282.254,100.194 282.289,100.159 282.409 C 100.072 282.709,101.887 284.795,102.113 284.655 C 102.213 284.594,102.272 284.657,102.243 284.795 C 102.214 284.934,102.298 285.026,102.429 285.000 C 102.560 284.974,102.645 285.056,102.619 285.182 C 102.593 285.308,102.679 285.415,102.810 285.420 C 102.940 285.425,103.052 285.514,103.056 285.619 C 103.067 285.853,104.206 287.048,104.418 287.048 C 104.598 287.048,105.114 287.473,105.977 288.333 C 106.319 288.674,106.690 288.952,106.803 288.952 C 106.915 288.952,107.056 289.081,107.117 289.238 C 107.177 289.395,107.348 289.524,107.497 289.524 C 107.647 289.524,107.822 289.661,107.886 289.829 C 107.952 290.002,108.125 290.088,108.285 290.027 C 108.447 289.964,108.548 290.017,108.522 290.150 C 108.497 290.277,108.623 290.370,108.802 290.356 C 108.981 290.342,109.110 290.385,109.088 290.451 C 109.066 290.517,109.108 290.571,109.182 290.571 C 109.256 290.571,109.436 290.735,109.582 290.934 C 109.728 291.134,109.945 291.235,110.066 291.161 C 110.198 291.079,110.286 291.152,110.286 291.342 C 110.286 291.545,110.388 291.621,110.569 291.551 C 110.728 291.490,110.833 291.539,110.807 291.662 C 110.782 291.783,110.915 291.916,111.102 291.956 C 111.289 291.997,111.669 292.241,111.947 292.498 C 112.224 292.756,112.569 292.921,112.712 292.866 C 112.855 292.811,112.930 292.834,112.879 292.916 C 112.828 292.999,112.961 293.176,113.175 293.309 C 113.494 293.508,113.541 293.507,113.434 293.300 C 113.358 293.152,113.409 293.165,113.557 293.333 C 113.696 293.490,114.067 293.747,114.381 293.904 C 114.695 294.061,114.995 294.233,115.048 294.285 C 115.353 294.592,116.830 295.218,117.000 295.113 C 117.111 295.045,117.146 295.078,117.078 295.189 C 116.944 295.405,117.461 295.680,117.712 295.526 C 117.796 295.473,117.916 295.564,117.979 295.727 C 118.041 295.891,118.172 295.975,118.268 295.916 C 118.365 295.856,118.474 295.898,118.511 296.009 C 118.548 296.120,118.705 296.233,118.861 296.259 C 119.016 296.285,119.411 296.448,119.738 296.622 C 120.065 296.795,120.386 296.883,120.452 296.818 C 120.518 296.752,120.571 296.798,120.571 296.921 C 120.571 297.043,120.636 297.125,120.714 297.103 C 120.850 297.065,121.966 297.525,122.734 297.935 C 123.008 298.081,123.054 298.067,122.940 297.871 C 122.858 297.733,122.965 297.771,123.178 297.957 C 123.647 298.368,125.543 299.058,125.788 298.907 C 125.884 298.847,125.907 298.890,125.837 299.003 C 125.762 299.125,125.960 299.260,126.332 299.340 C 126.673 299.413,127.076 299.570,127.227 299.689 C 127.437 299.854,127.468 299.849,127.360 299.669 C 127.264 299.509,127.313 299.469,127.514 299.546 C 127.677 299.609,127.810 299.736,127.810 299.830 C 127.810 299.923,127.874 299.990,127.952 299.977 C 128.031 299.965,128.160 299.976,128.238 300.001 C 128.317 300.027,128.445 300.061,128.524 300.078 C 128.602 300.095,128.860 300.216,129.097 300.348 C 129.334 300.479,129.634 300.566,129.764 300.539 C 129.894 300.513,130.193 300.598,130.429 300.729 C 130.664 300.859,130.857 300.914,130.857 300.850 C 130.857 300.787,130.998 300.876,131.171 301.049 C 131.344 301.222,131.644 301.321,131.838 301.271 C 132.032 301.220,132.190 301.245,132.190 301.325 C 132.190 301.464,133.647 302.090,134.148 302.166 C 134.276 302.185,134.488 302.268,134.619 302.350 C 134.750 302.432,134.943 302.446,135.048 302.381 C 135.152 302.316,135.238 302.351,135.238 302.459 C 135.238 302.567,135.370 302.604,135.531 302.542 C 135.692 302.481,135.987 302.578,136.186 302.758 C 136.386 302.939,136.768 303.099,137.036 303.115 C 137.304 303.130,137.524 303.211,137.524 303.294 C 137.524 303.377,137.631 303.424,137.762 303.397 C 137.893 303.370,138.194 303.456,138.431 303.587 C 138.668 303.718,139.110 303.843,139.414 303.865 C 139.718 303.887,139.930 303.942,139.885 303.988 C 139.745 304.129,141.985 304.764,142.262 304.661 C 142.406 304.608,142.642 304.663,142.786 304.782 C 142.930 304.901,143.048 304.935,143.048 304.857 C 143.048 304.779,143.155 304.804,143.286 304.913 C 143.417 305.022,143.588 305.118,143.667 305.127 C 143.745 305.136,143.831 305.150,143.857 305.159 C 143.923 305.181,144.589 305.299,145.048 305.370 C 145.257 305.402,145.478 305.496,145.539 305.578 C 145.600 305.660,146.041 305.746,146.519 305.769 C 146.997 305.791,147.342 305.887,147.284 305.982 C 147.224 306.080,147.438 306.103,147.780 306.034 C 148.160 305.959,148.381 305.991,148.381 306.122 C 148.381 306.243,148.614 306.295,148.942 306.247 C 149.251 306.201,149.456 306.242,149.397 306.337 C 149.338 306.432,149.536 306.484,149.836 306.452 C 150.136 306.421,150.489 306.462,150.621 306.543 C 150.753 306.625,151.012 306.643,151.197 306.585 C 151.381 306.526,151.811 306.558,152.151 306.655 C 152.533 306.765,152.727 306.765,152.659 306.655 C 152.593 306.548,152.723 306.541,152.989 306.638 C 153.231 306.726,153.750 306.788,154.143 306.775 C 154.536 306.762,154.857 306.800,154.857 306.861 C 154.857 306.922,155.307 306.992,155.857 307.017 C 156.407 307.042,157.586 307.111,158.476 307.170 C 160.786 307.322,169.963 307.389,170.190 307.255 C 170.295 307.193,170.681 307.138,171.048 307.131 C 172.448 307.107,172.972 307.043,172.888 306.905 C 172.840 306.826,173.104 306.746,173.476 306.726 C 174.251 306.685,175.238 306.318,175.238 306.072 C 175.238 305.980,175.302 305.925,175.381 305.949 C 175.590 306.015,176.574 305.110,176.472 304.945 C 176.424 304.868,176.491 304.809,176.621 304.813 C 177.277 304.837,177.537 304.747,177.409 304.539 C 177.316 304.389,177.375 304.356,177.588 304.438 C 177.919 304.565,179.886 303.125,179.880 302.759 C 179.879 302.656,179.992 302.457,180.131 302.318 C 180.270 302.179,180.328 301.972,180.258 301.860 C 180.186 301.744,180.220 301.710,180.338 301.783 C 180.574 301.929,180.847 301.244,180.668 300.954 C 180.602 300.848,180.693 300.762,180.869 300.762 C 181.147 300.762,181.155 300.718,180.928 300.429 C 180.696 300.133,180.701 300.122,180.973 300.335 C 181.166 300.485,181.246 300.751,181.189 301.050 C 181.139 301.312,181.201 301.650,181.327 301.802 C 181.453 301.954,181.507 302.158,181.447 302.256 C 181.291 302.509,181.732 304.571,181.942 304.571 C 182.039 304.571,182.060 304.665,181.989 304.780 C 181.841 305.019,182.495 308.190,182.692 308.190 C 182.763 308.190,182.777 308.362,182.722 308.571 C 182.667 308.781,182.697 308.952,182.788 308.952 C 182.879 308.952,182.967 309.188,182.985 309.476 C 183.014 309.953,183.142 310.617,183.253 310.857 C 183.277 310.910,183.316 311.038,183.340 311.143 C 183.365 311.248,183.402 311.376,183.422 311.429 C 183.443 311.481,183.496 311.738,183.540 312.000 C 183.689 312.893,183.761 313.238,183.809 313.286 C 183.835 313.312,183.879 313.419,183.905 313.524 C 183.931 313.629,183.976 313.779,184.005 313.857 C 184.103 314.121,184.146 314.378,184.169 314.821 C 184.181 315.063,184.275 315.208,184.379 315.144 C 184.487 315.077,184.519 315.154,184.453 315.324 C 184.391 315.487,184.473 315.953,184.636 316.360 C 184.799 316.767,184.879 317.152,184.815 317.217 C 184.751 317.281,184.780 317.333,184.880 317.333 C 184.980 317.333,185.079 317.483,185.099 317.667 C 185.120 317.850,185.175 318.171,185.221 318.381 C 185.267 318.590,185.311 318.874,185.319 319.011 C 185.327 319.148,185.428 319.202,185.544 319.130 C 185.686 319.043,185.713 319.132,185.627 319.405 C 185.556 319.628,185.581 319.810,185.684 319.810 C 185.786 319.810,185.827 319.971,185.775 320.169 C 185.723 320.367,185.774 320.586,185.888 320.656 C 186.002 320.727,186.095 320.999,186.095 321.261 C 186.095 321.522,186.173 321.689,186.268 321.630 C 186.363 321.571,186.396 321.695,186.341 321.904 C 186.284 322.124,186.335 322.286,186.462 322.286 C 186.584 322.286,186.661 322.393,186.634 322.524 C 186.546 322.954,187.299 325.128,187.494 325.007 C 187.606 324.938,187.634 325.019,187.562 325.207 C 187.495 325.381,187.529 325.524,187.636 325.524 C 187.744 325.524,187.783 325.604,187.722 325.701 C 187.662 325.799,187.692 325.927,187.789 325.987 C 187.885 326.047,187.923 326.254,187.872 326.448 C 187.821 326.642,187.894 326.920,188.033 327.067 C 188.172 327.213,188.309 327.545,188.338 327.803 C 188.367 328.061,188.536 328.490,188.714 328.755 C 188.892 329.021,189.017 329.306,188.992 329.389 C 188.967 329.471,189.050 329.729,189.176 329.960 C 189.302 330.192,189.419 330.548,189.435 330.752 C 189.452 330.956,189.560 331.155,189.675 331.193 C 189.789 331.231,189.831 331.400,189.766 331.567 C 189.683 331.786,189.721 331.828,189.902 331.716 C 190.053 331.623,190.108 331.635,190.040 331.745 C 189.878 332.007,190.375 333.368,190.568 333.192 C 190.656 333.113,190.661 333.163,190.580 333.304 C 190.489 333.460,190.599 333.787,190.861 334.141 C 191.097 334.460,191.179 334.653,191.044 334.569 C 190.758 334.392,190.925 334.736,191.410 335.318 C 191.577 335.520,191.608 335.622,191.478 335.547 C 191.319 335.454,191.279 335.505,191.355 335.703 C 191.418 335.865,191.540 335.954,191.627 335.900 C 191.715 335.846,191.775 335.959,191.760 336.151 C 191.728 336.583,192.190 337.737,192.355 337.635 C 192.422 337.594,192.490 337.785,192.506 338.060 C 192.523 338.335,192.630 338.591,192.744 338.629 C 192.859 338.667,192.952 338.868,192.952 339.075 C 192.952 339.282,193.029 339.404,193.123 339.346 C 193.217 339.288,193.344 339.373,193.406 339.535 C 193.481 339.728,193.439 339.788,193.284 339.710 C 193.154 339.644,193.176 339.705,193.333 339.844 C 193.490 339.983,193.643 340.225,193.673 340.382 C 193.784 340.966,194.147 341.714,194.320 341.714 C 194.418 341.714,194.446 341.800,194.381 341.905 C 194.316 342.010,194.354 342.095,194.465 342.095 C 194.576 342.095,194.657 342.160,194.644 342.238 C 194.584 342.616,194.685 342.868,194.855 342.763 C 194.967 342.694,194.992 342.780,194.918 342.974 C 194.826 343.213,194.860 343.259,195.045 343.145 C 195.214 343.040,195.252 343.062,195.158 343.213 C 195.082 343.336,195.283 343.865,195.605 344.388 C 195.927 344.911,196.190 345.429,196.190 345.538 C 196.190 345.647,196.275 345.684,196.379 345.620 C 196.491 345.551,196.516 345.637,196.442 345.831 C 196.357 346.051,196.388 346.113,196.537 346.021 C 196.678 345.934,196.719 345.985,196.651 346.161 C 196.593 346.313,196.642 346.498,196.761 346.571 C 196.879 346.644,197.056 346.915,197.154 347.173 C 197.252 347.431,197.403 347.599,197.489 347.546 C 197.574 347.493,197.803 347.723,197.997 348.058 C 198.865 349.559,200.354 350.302,202.288 350.198 C 203.575 350.129,204.631 349.774,204.444 349.472 C 204.370 349.352,204.416 349.332,204.562 349.423 C 204.943 349.658,207.140 347.182,206.962 346.719 C 206.911 346.585,206.958 346.476,207.067 346.476 C 207.176 346.476,207.246 346.283,207.223 346.048 C 207.200 345.812,207.251 345.456,207.337 345.257 C 207.426 345.049,207.396 344.561,207.266 344.114 C 207.142 343.684,207.006 343.193,206.964 343.022 C 206.816 342.421,206.085 341.143,205.890 341.143 C 205.781 341.143,205.745 341.057,205.810 340.952 C 205.874 340.848,205.839 340.762,205.732 340.762 C 205.624 340.762,205.585 340.633,205.645 340.476 C 205.706 340.319,205.660 340.190,205.544 340.190 C 205.428 340.190,205.343 340.126,205.356 340.048 C 205.416 339.665,205.313 339.418,205.138 339.527 C 205.031 339.593,204.955 339.577,204.970 339.490 C 205.052 339.021,204.930 338.658,204.732 338.780 C 204.604 338.859,204.564 338.833,204.636 338.716 C 204.798 338.455,204.295 337.487,204.094 337.670 C 204.009 337.747,203.998 337.707,204.069 337.582 C 204.141 337.458,203.900 336.792,203.535 336.103 C 203.169 335.414,202.867 334.809,202.864 334.758 C 202.860 334.708,202.857 334.576,202.857 334.465 C 202.857 334.354,202.772 334.316,202.669 334.380 C 202.557 334.449,202.531 334.363,202.606 334.169 C 202.691 333.949,202.659 333.887,202.511 333.979 C 202.367 334.068,202.329 334.013,202.404 333.819 C 202.466 333.657,202.440 333.524,202.347 333.524 C 202.253 333.524,202.162 333.333,202.144 333.099 C 202.127 332.865,201.981 332.578,201.821 332.461 C 201.661 332.344,201.587 332.191,201.656 332.122 C 201.726 332.052,201.584 331.727,201.342 331.399 C 201.099 331.071,201.007 330.868,201.136 330.948 C 201.312 331.057,201.309 330.980,201.121 330.642 C 200.983 330.394,200.864 330.148,200.855 330.095 C 200.771 329.570,200.271 328.617,200.126 328.706 C 200.025 328.769,200.002 328.723,200.076 328.603 C 200.150 328.483,200.057 328.063,199.869 327.669 C 199.681 327.275,199.519 326.910,199.510 326.857 C 199.401 326.251,199.164 325.738,199.029 325.821 C 198.937 325.878,198.913 325.792,198.975 325.629 C 199.041 325.457,198.987 325.333,198.846 325.333 C 198.712 325.333,198.660 325.277,198.729 325.208 C 198.797 325.139,198.766 324.977,198.658 324.847 C 198.551 324.718,198.480 324.538,198.501 324.449 C 198.585 324.087,198.233 323.248,198.045 323.364 C 197.936 323.432,197.898 323.403,197.962 323.299 C 198.103 323.071,197.711 321.714,197.504 321.714 C 197.423 321.714,197.363 321.564,197.370 321.381 C 197.385 321.031,195.614 315.816,195.091 314.667 C 194.925 314.300,194.798 313.848,194.811 313.663 C 194.824 313.477,194.770 313.364,194.693 313.413 C 194.615 313.461,194.543 313.203,194.532 312.840 C 194.522 312.476,194.404 312.048,194.271 311.887 C 194.138 311.726,193.996 311.281,193.957 310.898 C 193.918 310.515,193.825 310.156,193.752 310.100 C 193.679 310.045,193.617 309.914,193.615 309.810 C 193.604 309.226,193.291 308.194,193.151 308.281 C 193.061 308.336,193.030 308.219,193.083 308.020 C 193.135 307.821,193.065 307.456,192.929 307.210 C 192.691 306.782,192.649 306.592,192.595 305.703 C 192.582 305.487,192.486 305.364,192.381 305.429 C 192.276 305.493,192.190 305.456,192.190 305.345 C 192.190 305.071,192.683 305.094,193.743 305.416 C 194.231 305.564,194.850 305.661,195.119 305.631 C 195.409 305.599,195.560 305.655,195.490 305.769 C 195.417 305.886,195.566 305.923,195.876 305.864 C 196.154 305.811,196.381 305.851,196.381 305.953 C 196.381 306.056,196.597 306.098,196.862 306.048 C 197.126 305.997,197.389 306.031,197.446 306.123 C 197.502 306.215,197.779 306.283,198.060 306.274 C 198.341 306.265,198.871 306.325,199.238 306.408 C 199.605 306.491,200.312 306.561,200.810 306.565 C 201.307 306.569,201.714 306.620,201.714 306.680 C 201.714 306.739,202.207 306.797,202.810 306.808 C 203.412 306.820,203.905 306.847,203.905 306.870 C 203.905 306.893,204.762 306.931,205.810 306.955 C 206.857 306.979,207.849 307.056,208.013 307.125 C 208.177 307.195,208.734 307.204,209.251 307.146 C 209.768 307.087,211.090 307.005,212.190 306.964 C 213.290 306.923,214.790 306.836,215.524 306.771 C 216.257 306.706,217.050 306.655,217.286 306.658 C 217.521 306.660,217.715 306.599,217.716 306.522 C 217.717 306.444,218.155 306.365,218.690 306.345 C 219.225 306.326,219.803 306.249,219.975 306.174 C 220.146 306.100,220.479 306.057,220.714 306.081 C 220.950 306.104,221.143 306.043,221.143 305.945 C 221.143 305.847,221.370 305.811,221.647 305.864 C 222.028 305.936,222.114 305.899,221.999 305.712 C 221.901 305.554,221.921 305.511,222.054 305.593 C 222.231 305.703,223.887 305.402,224.571 305.135 C 224.624 305.114,224.731 305.108,224.810 305.120 C 224.888 305.133,224.952 305.071,224.952 304.984 C 224.952 304.897,225.217 304.825,225.541 304.825 C 225.864 304.825,226.185 304.738,226.255 304.630 C 226.324 304.523,226.531 304.458,226.714 304.486 C 226.898 304.515,227.048 304.462,227.048 304.370 C 227.048 304.278,227.190 304.257,227.365 304.324 C 227.590 304.411,227.638 304.375,227.531 304.202 C 227.419 304.020,227.488 303.993,227.810 304.095 C 228.131 304.197,228.200 304.170,228.088 303.988 C 227.981 303.815,228.029 303.780,228.254 303.866 C 228.429 303.933,228.571 303.896,228.571 303.783 C 228.571 303.670,228.689 303.624,228.833 303.679 C 228.978 303.734,229.314 303.666,229.582 303.527 C 229.849 303.388,230.117 303.324,230.177 303.383 C 230.237 303.443,230.286 303.387,230.286 303.259 C 230.286 303.130,230.351 303.065,230.430 303.115 C 230.510 303.164,230.874 303.070,231.240 302.906 C 231.606 302.741,231.971 302.621,232.053 302.639 C 232.134 302.656,232.251 302.541,232.311 302.384 C 232.371 302.226,232.494 302.143,232.584 302.198 C 232.772 302.314,234.729 301.370,234.826 301.117 C 234.861 301.025,234.963 300.995,235.053 301.051 C 235.142 301.106,235.405 300.957,235.636 300.719 C 235.867 300.480,235.988 300.405,235.905 300.551 C 235.799 300.736,235.932 300.711,236.342 300.469 C 236.666 300.277,236.880 300.029,236.816 299.917 C 236.753 299.806,236.769 299.776,236.852 299.850 C 237.045 300.025,237.738 299.659,238.053 299.216 C 238.187 299.027,238.408 298.916,238.546 298.969 C 238.683 299.022,239.079 298.782,239.426 298.437 C 239.773 298.092,239.991 297.925,239.910 298.067 C 239.791 298.275,239.841 298.282,240.173 298.105 C 240.398 297.984,240.532 297.805,240.472 297.707 C 240.411 297.609,240.478 297.573,240.622 297.628 C 240.765 297.683,241.112 297.515,241.393 297.254 C 241.675 296.993,241.907 296.840,241.911 296.914 C 241.914 296.987,242.004 296.898,242.110 296.714 C 242.217 296.531,242.423 296.381,242.567 296.381 C 242.712 296.381,242.980 296.231,243.163 296.048 C 243.347 295.864,243.546 295.714,243.605 295.713 C 243.903 295.710,245.131 294.802,245.039 294.653 C 244.980 294.558,245.057 294.528,245.208 294.586 C 245.363 294.646,245.605 294.519,245.759 294.300 C 245.910 294.084,246.091 293.964,246.160 294.033 C 246.229 294.102,246.286 294.069,246.286 293.959 C 246.286 293.849,246.466 293.712,246.686 293.654 C 246.940 293.587,247.034 293.465,246.942 293.317 C 246.848 293.164,246.878 293.133,247.028 293.226 C 247.162 293.309,247.401 293.203,247.601 292.973 C 247.789 292.756,247.986 292.621,248.038 292.672 C 248.089 292.724,248.522 292.423,249.000 292.002 C 249.477 291.582,249.923 291.238,249.989 291.238 C 250.284 291.238,251.212 290.397,251.106 290.226 C 251.040 290.119,251.085 290.096,251.209 290.172 C 251.330 290.247,251.429 290.217,251.429 290.106 C 251.429 289.996,251.551 289.905,251.701 289.905 C 251.850 289.905,252.300 289.596,252.701 289.218 C 253.101 288.841,253.471 288.519,253.524 288.504 C 253.576 288.489,253.598 288.412,253.571 288.333 C 253.545 288.255,253.657 288.190,253.821 288.190 C 254.216 288.190,255.636 287.039,255.504 286.825 C 255.447 286.733,255.471 286.670,255.557 286.685 C 255.943 286.751,256.203 286.651,256.095 286.476 C 256.030 286.371,256.090 286.286,256.227 286.285 C 256.581 286.285,257.545 285.418,257.378 285.251 C 257.301 285.174,257.324 285.136,257.429 285.167 C 257.714 285.252,258.476 284.707,258.476 284.419 C 258.476 284.281,258.558 284.218,258.657 284.280 C 258.757 284.341,258.932 284.215,259.048 284.000 C 259.163 283.785,259.329 283.653,259.417 283.707 C 259.631 283.840,260.034 283.336,259.855 283.157 C 259.778 283.079,259.800 283.041,259.905 283.072 C 260.208 283.162,260.975 282.666,260.848 282.462 C 260.785 282.360,260.847 282.300,260.986 282.329 C 261.125 282.357,261.220 282.282,261.197 282.162 C 261.174 282.041,261.366 281.890,261.624 281.825 C 261.882 281.761,262.072 281.606,262.047 281.481 C 262.021 281.357,262.105 281.252,262.234 281.247 C 262.363 281.242,262.663 281.043,262.901 280.805 C 263.139 280.567,263.570 280.196,263.859 279.981 C 264.148 279.765,264.336 279.510,264.276 279.413 C 264.217 279.317,264.291 279.238,264.442 279.238 C 264.593 279.238,265.026 278.884,265.406 278.451 C 265.785 278.019,266.095 277.719,266.095 277.786 C 266.095 277.853,266.352 277.679,266.667 277.399 C 266.981 277.119,267.238 276.761,267.238 276.603 C 267.238 276.446,267.295 276.375,267.365 276.445 C 267.535 276.614,268.190 276.010,268.190 275.685 C 268.190 275.544,268.321 275.429,268.480 275.429 C 268.640 275.429,268.866 275.217,268.984 274.958 C 269.102 274.700,269.272 274.533,269.361 274.589 C 269.451 274.644,269.524 274.556,269.524 274.392 C 269.524 274.229,269.631 274.117,269.762 274.143 C 269.893 274.169,269.976 274.077,269.948 273.938 C 269.919 273.799,269.966 273.730,270.052 273.783 C 270.250 273.905,272.024 272.088,271.864 271.928 C 271.799 271.863,271.873 271.810,272.028 271.810 C 272.325 271.810,273.143 270.829,273.143 270.473 C 273.143 270.357,273.216 270.309,273.306 270.364 C 273.515 270.493,274.331 269.633,274.160 269.462 C 274.090 269.391,274.180 269.333,274.360 269.333 C 274.541 269.333,274.636 269.248,274.571 269.143 C 274.507 269.038,274.584 268.952,274.744 268.952 C 274.904 268.952,275.137 268.760,275.262 268.524 C 275.387 268.288,275.647 267.983,275.840 267.846 C 276.033 267.709,276.190 267.469,276.190 267.311 C 276.190 267.154,276.270 267.074,276.366 267.134 C 276.593 267.274,277.367 266.197,277.185 265.996 C 277.109 265.912,277.147 265.901,277.269 265.970 C 277.533 266.121,278.721 264.696,278.519 264.472 C 278.443 264.388,278.477 264.375,278.594 264.442 C 278.715 264.510,279.196 264.069,279.702 263.424 C 280.194 262.798,280.545 262.286,280.482 262.286 C 280.419 262.286,280.632 262.027,280.955 261.711 C 281.285 261.389,281.484 261.042,281.409 260.920 C 281.323 260.782,281.360 260.756,281.507 260.847 C 281.655 260.938,281.778 260.845,281.845 260.591 C 281.902 260.371,282.039 260.190,282.149 260.190 C 282.259 260.190,282.301 260.143,282.243 260.084 C 282.185 260.026,282.388 259.704,282.694 259.370 C 283.001 259.036,283.301 258.570,283.361 258.335 C 283.421 258.097,283.559 257.963,283.672 258.033 C 283.798 258.110,283.829 258.040,283.755 257.847 C 283.689 257.676,283.731 257.477,283.847 257.405 C 283.983 257.321,284.009 257.370,283.920 257.542 C 283.844 257.689,283.913 257.647,284.075 257.448 C 284.237 257.249,284.323 257.013,284.268 256.923 C 284.212 256.833,284.300 256.708,284.464 256.645 C 284.628 256.582,284.762 256.411,284.762 256.265 C 284.762 256.119,284.857 256.000,284.973 256.000 C 285.089 256.000,285.134 255.871,285.074 255.714 C 285.014 255.557,285.049 255.429,285.152 255.429 C 285.384 255.429,286.107 254.268,285.991 254.081 C 285.945 254.006,286.044 253.892,286.211 253.828 C 286.390 253.759,286.469 253.590,286.403 253.417 C 286.341 253.255,286.366 253.170,286.458 253.227 C 286.551 253.284,286.678 253.199,286.740 253.037 C 286.814 252.843,286.772 252.783,286.617 252.861 C 286.487 252.927,286.513 252.867,286.674 252.728 C 286.975 252.469,288.044 250.397,287.995 250.170 C 287.980 250.100,288.041 249.990,288.130 249.926 C 288.381 249.747,288.779 248.753,288.670 248.577 C 288.617 248.491,288.711 248.368,288.878 248.304 C 289.052 248.237,289.136 248.065,289.073 247.903 C 289.013 247.747,289.038 247.619,289.128 247.619 C 289.219 247.619,289.344 247.486,289.406 247.323 C 289.479 247.135,289.442 247.076,289.305 247.160 C 289.188 247.233,289.286 247.029,289.524 246.708 C 289.765 246.382,289.905 245.990,289.841 245.823 C 289.778 245.659,289.799 245.524,289.888 245.524 C 290.144 245.524,290.528 244.430,290.369 244.154 C 290.289 244.017,290.297 243.970,290.385 244.050 C 290.473 244.130,290.666 243.838,290.814 243.400 C 290.962 242.962,291.204 242.483,291.351 242.336 C 291.498 242.189,291.619 241.860,291.619 241.605 C 291.619 241.351,291.696 241.143,291.789 241.143 C 292.003 241.143,292.194 240.658,292.300 239.846 C 292.358 239.397,292.317 239.255,292.158 239.353 C 292.006 239.447,291.976 239.385,292.064 239.156 C 292.155 238.919,292.082 238.793,291.812 238.723 C 291.604 238.668,291.483 238.543,291.543 238.445 C 291.688 238.211,290.449 236.947,290.216 237.091 C 290.117 237.152,290.089 237.116,290.154 237.011 C 290.266 236.830,289.220 235.853,288.894 235.835 C 288.810 235.830,288.577 235.630,288.377 235.389 C 288.177 235.149,288.010 235.020,288.006 235.102 C 288.003 235.184,287.826 235.158,287.614 235.045 C 287.401 234.931,287.286 234.743,287.357 234.628 C 287.436 234.501,287.400 234.471,287.268 234.553 C 287.147 234.628,287.048 234.598,287.048 234.487 C 287.048 234.376,286.919 234.286,286.762 234.286 C 286.605 234.286,286.476 234.186,286.476 234.063 C 286.476 233.941,286.423 233.894,286.358 233.959 C 286.293 234.024,286.116 233.953,285.964 233.800 C 285.812 233.648,285.527 233.524,285.331 233.524 C 285.135 233.524,284.922 233.438,284.857 233.333 C 284.792 233.229,284.487 233.143,284.179 233.143 C 283.871 233.143,283.619 233.047,283.619 232.930 C 283.619 232.813,283.452 232.761,283.247 232.815 C 283.043 232.868,282.849 232.834,282.818 232.739 C 282.786 232.643,282.502 232.533,282.188 232.493 C 281.873 232.453,281.251 232.322,280.806 232.202 C 280.360 232.082,279.890 232.001,279.760 232.022 C 279.630 232.043,279.374 231.995,279.191 231.915 C 279.008 231.835,278.515 231.802,278.096 231.842 C 277.677 231.882,277.333 231.858,277.333 231.789 C 277.333 231.720,276.798 231.660,276.143 231.655 C 274.449 231.642,273.901 231.589,273.988 231.447 C 274.030 231.379,273.557 231.310,272.937 231.293 C 272.317 231.276,271.809 231.321,271.809 231.393 C 271.809 231.465,270.760 231.541,269.479 231.563 C 268.105 231.586,267.122 231.681,267.084 231.795 C 267.045 231.911,266.682 231.943,266.176 231.873 C 265.713 231.810,265.333 231.834,265.333 231.926 C 265.333 232.019,264.761 232.114,264.062 232.137 C 263.363 232.160,262.742 232.259,262.681 232.356 C 262.621 232.453,262.289 232.500,261.943 232.460 C 261.597 232.419,261.357 232.456,261.409 232.540 C 261.462 232.625,261.230 232.702,260.895 232.711 C 259.698 232.742,259.246 232.812,259.332 232.951 C 259.380 233.028,259.168 233.063,258.861 233.027 C 258.554 232.991,258.249 233.049,258.183 233.155 C 258.117 233.262,257.899 233.297,257.698 233.233 C 257.498 233.169,257.333 233.206,257.333 233.315 C 257.333 233.423,257.213 233.466,257.067 233.410 C 256.920 233.353,256.751 233.387,256.690 233.485 C 256.630 233.583,256.351 233.619,256.071 233.566 C 255.687 233.492,255.600 233.529,255.715 233.716 C 255.814 233.875,255.793 233.917,255.658 233.834 C 255.469 233.717,254.061 233.961,253.333 234.238 C 253.176 234.297,252.791 234.383,252.478 234.427 C 252.164 234.471,251.864 234.565,251.811 234.635 C 251.758 234.705,251.505 234.785,251.249 234.814 C 250.994 234.842,250.530 234.992,250.220 235.147 C 249.910 235.302,249.493 235.429,249.293 235.429 C 248.628 235.429,247.241 235.851,247.347 236.022 C 247.443 236.178,246.892 236.277,246.333 236.205 C 246.202 236.188,246.095 236.268,246.095 236.384 C 246.095 236.499,246.024 236.550,245.936 236.496 C 245.701 236.351,244.379 236.795,244.493 236.980 C 244.547 237.067,244.458 237.087,244.296 237.025 C 244.133 236.963,244.000 236.989,244.000 237.084 C 244.000 237.179,243.807 237.258,243.571 237.259 C 243.029 237.261,240.381 238.267,240.381 238.472 C 240.381 238.556,240.274 238.620,240.143 238.615 C 239.517 238.592,239.227 238.684,239.341 238.870 C 239.410 238.982,239.351 239.057,239.210 239.038 C 238.661 238.962,238.268 239.056,238.380 239.236 C 238.444 239.340,238.375 239.378,238.225 239.320 C 238.076 239.263,237.814 239.356,237.644 239.526 C 237.473 239.697,237.333 239.793,237.333 239.739 C 237.333 239.686,237.104 239.761,236.823 239.906 C 236.543 240.052,236.243 240.127,236.157 240.074 C 236.070 240.021,236.000 240.073,236.000 240.190 C 236.000 240.308,235.914 240.350,235.810 240.286 C 235.705 240.221,235.619 240.264,235.619 240.381 C 235.619 240.498,235.533 240.541,235.429 240.476 C 235.324 240.411,235.238 240.454,235.238 240.571 C 235.238 240.689,235.163 240.738,235.071 240.681 C 234.848 240.543,233.714 241.117,233.714 241.368 C 233.714 241.476,233.588 241.516,233.434 241.457 C 233.280 241.398,233.044 241.459,232.910 241.593 C 232.776 241.727,232.598 241.842,232.515 241.848 C 232.066 241.882,230.667 242.538,230.667 242.714 C 230.667 242.828,230.613 242.867,230.548 242.802 C 230.386 242.640,228.952 243.387,228.952 243.634 C 228.952 243.743,228.865 243.778,228.758 243.712 C 228.651 243.646,228.135 243.855,227.612 244.177 C 227.089 244.499,226.571 244.762,226.462 244.762 C 226.353 244.762,226.316 244.847,226.380 244.950 C 226.446 245.058,226.370 245.090,226.202 245.026 C 226.036 244.962,225.862 245.032,225.803 245.187 C 225.745 245.337,225.584 245.460,225.444 245.460 C 225.008 245.460,222.680 246.915,222.801 247.111 C 222.864 247.213,222.825 247.241,222.713 247.172 C 222.426 246.994,221.882 247.238,222.031 247.478 C 222.103 247.594,222.063 247.621,221.935 247.543 C 221.812 247.467,221.515 247.624,221.258 247.901 C 221.006 248.173,220.599 248.434,220.353 248.482 C 220.107 248.529,219.877 248.654,219.842 248.760 C 219.807 248.866,219.651 248.952,219.497 248.952 C 219.333 248.952,219.272 249.044,219.352 249.172 C 219.436 249.309,219.404 249.340,219.266 249.255 C 219.035 249.112,218.032 249.778,218.210 249.956 C 218.265 250.011,218.155 250.044,217.965 250.029 C 217.775 250.013,217.637 250.097,217.659 250.216 C 217.681 250.334,217.553 250.420,217.373 250.406 C 217.194 250.392,217.068 250.485,217.093 250.612 C 217.118 250.739,217.019 250.798,216.874 250.742 C 216.729 250.686,216.545 250.745,216.466 250.874 C 216.368 251.032,216.401 251.057,216.571 250.952 C 216.738 250.850,216.775 250.873,216.683 251.021 C 216.607 251.144,216.452 251.187,216.339 251.117 C 216.225 251.047,216.039 251.110,215.923 251.257 C 215.808 251.404,215.492 251.638,215.219 251.779 C 214.947 251.919,214.484 252.240,214.190 252.493 C 213.896 252.746,213.583 252.952,213.494 252.952 C 213.406 252.952,213.333 253.086,213.333 253.249 C 213.333 253.413,213.248 253.493,213.143 253.429 C 213.038 253.364,212.952 253.407,212.952 253.524 C 212.952 253.641,212.867 253.684,212.762 253.619 C 212.657 253.554,212.571 253.649,212.571 253.830 C 212.571 254.011,212.518 254.105,212.453 254.040 C 212.387 253.974,212.166 254.110,211.962 254.341 C 211.757 254.573,211.650 254.646,211.723 254.504 C 211.814 254.328,211.698 254.350,211.357 254.574 C 211.082 254.754,210.857 255.020,210.857 255.165 C 210.857 255.310,210.793 255.415,210.714 255.398 C 210.400 255.332,209.915 255.672,210.032 255.877 C 210.100 255.997,210.088 256.034,210.005 255.959 C 209.811 255.783,209.101 256.159,209.231 256.369 C 209.285 256.457,209.185 256.645,209.009 256.788 C 208.738 257.008,208.713 257.007,208.848 256.784 C 208.935 256.639,208.737 256.719,208.408 256.962 C 208.079 257.206,207.810 257.466,207.810 257.541 C 207.810 257.616,207.505 257.857,207.132 258.077 C 206.759 258.297,206.507 258.562,206.572 258.667 C 206.636 258.771,206.560 258.857,206.402 258.857 C 206.244 258.857,205.542 259.424,204.842 260.117 C 204.142 260.810,203.638 261.260,203.722 261.117 C 203.806 260.974,203.691 261.019,203.466 261.216 C 203.241 261.413,203.111 261.670,203.178 261.787 C 203.245 261.904,203.233 261.941,203.153 261.868 C 202.962 261.697,201.501 263.048,201.638 263.269 C 201.696 263.362,201.633 263.414,201.499 263.386 C 201.365 263.357,201.252 263.462,201.247 263.619 C 201.242 263.776,201.141 263.905,201.023 263.905 C 200.904 263.905,200.390 264.327,199.880 264.843 C 199.370 265.359,199.073 265.710,199.220 265.623 C 199.401 265.516,199.443 265.536,199.352 265.685 C 199.277 265.806,199.113 265.905,198.987 265.905 C 198.767 265.905,198.211 266.609,198.197 266.905 C 198.194 266.983,198.130 267.026,198.057 267.000 C 197.817 266.914,196.572 268.419,196.699 268.641 C 196.767 268.760,196.757 268.798,196.677 268.726 C 196.485 268.553,195.945 269.104,195.662 269.762 C 195.538 270.050,195.306 270.286,195.147 270.286 C 194.987 270.286,194.857 270.451,194.857 270.655 C 194.857 270.859,194.758 271.086,194.637 271.161 C 194.488 271.253,194.469 271.211,194.579 271.029 C 194.716 270.802,194.692 270.801,194.418 271.023 C 194.240 271.167,194.095 271.406,194.095 271.553 C 194.095 271.701,193.967 271.871,193.811 271.931 C 193.654 271.991,193.573 272.116,193.630 272.209 C 193.688 272.302,193.516 272.597,193.248 272.864 C 192.981 273.132,192.762 273.432,192.762 273.532 C 192.762 273.632,192.611 273.865,192.426 274.050 C 191.762 274.714,191.217 275.621,191.351 275.838 C 191.433 275.972,191.404 276.008,191.277 275.929 C 191.161 275.857,190.968 275.983,190.848 276.208 C 190.671 276.539,190.678 276.592,190.886 276.485 C 191.027 276.412,190.971 276.492,190.762 276.661 C 190.552 276.831,190.379 277.077,190.378 277.207 C 190.376 277.338,190.186 277.647,189.956 277.894 C 189.725 278.141,189.582 278.416,189.637 278.505 C 189.692 278.594,189.656 278.667,189.557 278.667 C 189.459 278.667,189.326 278.817,189.262 279.000 C 188.631 280.819,187.532 281.776,187.508 280.529 C 187.481 279.190,187.340 277.715,187.238 277.714 C 187.186 277.713,187.119 276.752,187.090 275.578 C 187.061 274.405,186.973 273.398,186.894 273.341 C 186.816 273.285,186.748 272.681,186.743 272.000 C 186.738 271.319,186.675 269.862,186.603 268.762 C 186.376 265.327,186.281 263.949,186.172 262.571 C 186.115 261.838,186.052 260.837,186.032 260.348 C 186.013 259.858,185.952 259.412,185.897 259.357 C 185.841 259.302,185.820 258.716,185.848 258.057 C 185.877 257.397,185.848 256.729,185.782 256.571 C 185.654 256.262,185.531 254.833,185.484 253.095 C 185.468 252.493,185.406 252.000,185.346 252.000 C 185.287 252.000,185.262 251.443,185.291 250.762 C 185.320 250.081,185.277 249.524,185.195 249.524 C 185.114 249.524,185.076 248.924,185.111 248.191 C 185.146 247.457,185.103 246.857,185.016 246.857 C 184.928 246.857,184.864 246.386,184.873 245.810 C 184.881 245.233,184.838 244.762,184.777 244.762 C 184.717 244.762,184.666 244.355,184.666 243.857 C 184.666 243.360,184.594 242.438,184.507 241.810 C 184.421 241.181,184.324 240.410,184.292 240.095 C 184.260 239.781,184.215 239.481,184.193 239.429 C 184.170 239.376,184.167 239.055,184.186 238.714 C 184.204 238.374,184.149 238.095,184.062 238.095 C 183.976 238.095,183.888 237.488,183.867 236.746 C 183.847 236.004,183.744 235.294,183.640 235.168 C 183.535 235.042,183.453 234.642,183.458 234.279 C 183.471 233.111,183.215 230.390,183.081 230.288 C 183.010 230.235,182.945 229.762,182.935 229.238 C 182.925 228.714,182.858 227.729,182.785 227.048 C 182.470 224.110,182.369 218.393,182.544 213.381 C 182.596 211.890,182.560 210.857,182.456 210.857 C 182.358 210.857,182.335 210.630,182.405 210.353 C 182.503 209.964,182.474 209.884,182.281 210.003 C 182.099 210.115,182.064 210.070,182.153 209.837 C 182.286 209.491,181.751 208.717,181.490 208.878 C 181.404 208.931,181.333 208.906,181.333 208.821 C 181.332 208.415,180.052 208.591,179.651 209.052 " stroke="none" fill="#94bbac" fill-rule="evenodd"></path><path id="path2" d="M82.476 104.224 C 79.748 104.999,78.117 108.532,79.122 111.490 C 79.290 111.988,79.429 112.520,79.429 112.674 C 79.429 112.828,79.600 113.274,79.810 113.665 C 80.019 114.055,80.190 114.484,80.190 114.617 C 80.190 114.750,80.362 115.178,80.571 115.569 C 80.781 115.960,80.952 116.421,80.952 116.593 C 80.952 116.765,81.081 117.012,81.238 117.143 C 81.395 117.273,81.524 117.503,81.524 117.654 C 81.524 117.805,81.748 118.416,82.021 119.012 C 82.513 120.083,83.042 121.271,83.522 122.381 C 83.657 122.695,83.939 123.338,84.148 123.810 C 84.357 124.281,84.761 125.267,85.045 126.000 C 85.330 126.733,85.640 127.415,85.734 127.514 C 85.828 127.614,85.905 127.819,85.905 127.970 C 85.905 128.121,86.066 128.596,86.263 129.027 C 86.460 129.457,86.815 130.281,87.052 130.857 C 88.593 134.600,92.405 142.401,94.731 146.571 C 95.501 147.951,99.517 154.862,99.855 155.389 C 100.037 155.673,100.293 156.119,100.422 156.381 C 100.552 156.643,100.938 157.263,101.281 157.760 C 101.624 158.256,101.905 158.710,101.905 158.768 C 101.905 158.825,102.063 159.105,102.256 159.389 C 103.225 160.814,104.190 162.307,104.190 162.380 C 104.190 162.425,104.678 163.172,105.273 164.040 C 105.868 164.909,106.705 166.133,107.132 166.762 C 107.559 167.390,108.208 168.314,108.574 168.814 C 110.342 171.235,111.429 172.693,111.663 172.960 C 111.804 173.121,112.402 173.857,112.990 174.595 C 116.346 178.801,120.074 179.591,122.660 176.645 C 124.833 174.170,124.454 171.569,121.342 167.592 C 120.551 166.582,119.776 165.567,119.619 165.336 C 119.357 164.951,118.254 163.453,117.372 162.286 C 116.420 161.025,112.926 155.893,112.700 155.424 C 112.626 155.269,112.314 154.757,112.008 154.286 C 110.620 152.153,110.378 151.749,106.727 145.471 C 103.821 140.474,102.937 138.853,100.945 134.857 C 98.829 130.614,98.095 129.034,98.095 128.723 C 98.095 128.561,97.967 128.321,97.810 128.190 C 97.652 128.060,97.523 127.814,97.523 127.643 C 97.522 127.473,97.388 127.078,97.225 126.765 C 97.062 126.453,96.710 125.639,96.443 124.956 C 96.175 124.273,95.805 123.371,95.620 122.952 C 95.435 122.533,95.093 121.719,94.860 121.143 C 94.627 120.567,94.325 119.838,94.189 119.524 C 94.053 119.210,93.774 118.567,93.569 118.095 C 93.364 117.624,92.964 116.681,92.679 116.000 C 92.394 115.319,92.028 114.462,91.864 114.095 C 91.701 113.729,91.417 113.086,91.233 112.667 C 91.049 112.248,90.718 111.510,90.497 111.027 C 90.276 110.544,90.095 110.062,90.095 109.956 C 90.095 109.747,89.542 108.388,88.935 107.108 C 87.826 104.767,85.002 103.506,82.476 104.224 M128.448 187.429 C 126.218 188.561,124.807 192.250,125.803 194.346 C 127.602 198.134,132.197 198.136,133.990 194.350 C 135.747 190.640,131.809 185.723,128.448 187.429 " stroke="none" fill="#f7f8fa" fill-rule="evenodd"></path><path id="path3" d="M287.141 234.664 C 287.314 234.944,288.000 235.280,288.000 235.085 C 288.000 234.993,287.780 234.818,287.512 234.696 C 287.233 234.569,287.074 234.555,287.141 234.664 M249.429 235.238 C 249.061 235.396,249.063 235.402,249.465 235.415 C 249.694 235.423,249.935 235.343,250.000 235.238 C 250.139 235.013,249.953 235.013,249.429 235.238 M173.124 279.333 C 173.445 279.955,173.709 280.299,173.707 280.095 C 173.706 279.990,173.531 279.690,173.316 279.429 C 173.058 279.112,172.993 279.080,173.124 279.333 M197.531 347.524 C 197.532 347.629,197.708 347.929,197.922 348.190 C 198.180 348.507,198.245 348.539,198.114 348.286 C 197.793 347.664,197.530 347.320,197.531 347.524 " stroke="none" fill="#94c4ad" fill-rule="evenodd"></path><path id="path4" d="M82.340 103.665 C 80.839 104.211,79.594 105.250,78.915 106.526 C 78.241 107.790,78.118 111.330,78.716 112.242 C 78.898 112.521,79.048 112.905,79.048 113.096 C 79.048 113.287,79.219 113.780,79.429 114.190 C 79.638 114.601,79.810 115.017,79.810 115.115 C 79.810 115.212,79.990 115.687,80.211 116.170 C 80.432 116.653,80.763 117.390,80.947 117.810 C 81.131 118.229,81.414 118.871,81.575 119.238 C 81.736 119.605,82.052 120.333,82.277 120.857 C 82.502 121.381,82.853 122.152,83.058 122.571 C 83.262 122.990,83.429 123.410,83.429 123.503 C 83.429 123.596,83.600 124.046,83.810 124.503 C 84.019 124.960,84.362 125.707,84.571 126.164 C 84.781 126.620,84.952 127.092,84.952 127.212 C 84.952 127.332,85.124 127.750,85.333 128.141 C 85.543 128.532,85.714 128.992,85.714 129.164 C 85.714 129.336,85.843 129.584,86.000 129.714 C 86.157 129.845,86.286 130.085,86.286 130.249 C 86.286 130.526,86.425 130.869,87.455 133.143 C 87.669 133.614,87.996 134.343,88.182 134.762 C 88.367 135.181,88.697 135.910,88.914 136.381 C 89.131 136.852,89.357 137.367,89.415 137.524 C 89.474 137.681,89.608 137.938,89.713 138.095 C 89.819 138.252,89.990 138.595,90.095 138.857 C 90.199 139.119,90.371 139.462,90.476 139.619 C 90.581 139.776,90.754 140.119,90.861 140.381 C 90.967 140.643,91.563 141.800,92.185 142.952 C 92.807 144.105,93.458 145.369,93.631 145.762 C 93.804 146.155,94.013 146.476,94.095 146.476 C 94.177 146.476,94.297 146.684,94.361 146.939 C 94.424 147.194,94.584 147.517,94.715 147.658 C 94.845 147.800,95.210 148.401,95.524 148.995 C 96.023 149.940,97.513 152.511,98.796 154.643 C 99.025 155.023,99.346 155.590,99.510 155.905 C 99.674 156.219,99.978 156.733,100.184 157.048 C 100.391 157.362,100.703 157.876,100.878 158.190 C 101.053 158.505,101.254 158.805,101.325 158.857 C 101.396 158.910,101.733 159.445,102.074 160.048 C 102.415 160.650,102.755 161.143,102.829 161.143 C 102.903 161.143,103.070 161.379,103.198 161.667 C 103.459 162.249,103.651 162.567,104.480 163.788 C 104.792 164.248,105.159 164.827,105.296 165.074 C 105.433 165.321,105.626 165.524,105.725 165.524 C 105.824 165.524,105.905 165.641,105.905 165.783 C 105.905 165.926,106.171 166.376,106.496 166.783 C 106.820 167.191,107.396 167.995,107.774 168.571 C 108.153 169.148,108.573 169.688,108.707 169.771 C 108.842 169.855,108.952 170.008,108.952 170.110 C 108.952 170.273,109.288 170.747,110.807 172.723 C 110.992 172.964,111.314 173.365,111.524 173.615 C 111.733 173.864,112.205 174.476,112.571 174.974 C 113.808 176.655,115.502 178.153,116.510 178.459 C 118.778 179.147,118.618 179.134,120.058 178.764 C 123.782 177.808,125.561 174.234,124.067 170.714 C 123.789 170.060,123.489 169.524,123.400 169.524 C 123.311 169.524,123.238 169.432,123.238 169.320 C 123.238 169.133,121.906 167.354,121.238 166.651 C 121.081 166.485,120.952 166.268,120.952 166.169 C 120.952 166.070,120.802 165.845,120.619 165.668 C 120.077 165.145,119.735 164.717,119.137 163.810 C 118.827 163.338,118.465 162.884,118.334 162.800 C 118.203 162.716,118.095 162.557,118.095 162.447 C 118.095 162.336,117.880 161.976,117.616 161.647 C 116.966 160.834,116.982 160.856,115.908 159.238 C 115.386 158.452,114.850 157.741,114.718 157.657 C 114.585 157.573,114.476 157.407,114.476 157.286 C 114.476 157.065,113.626 155.732,113.190 155.272 C 113.060 155.134,112.952 154.944,112.952 154.851 C 112.952 154.758,112.501 154.014,111.950 153.198 C 111.399 152.382,110.841 151.500,110.710 151.238 C 110.579 150.976,110.301 150.505,110.093 150.190 C 109.884 149.876,109.582 149.362,109.422 149.048 C 109.262 148.733,108.752 147.876,108.289 147.143 C 107.826 146.410,107.313 145.552,107.151 145.238 C 106.988 144.924,106.647 144.324,106.393 143.905 C 106.139 143.486,105.795 142.886,105.630 142.571 C 105.464 142.257,104.989 141.400,104.575 140.667 C 104.160 139.933,103.726 139.119,103.611 138.857 C 103.496 138.596,103.290 138.253,103.152 138.096 C 103.015 137.938,102.839 137.595,102.762 137.333 C 102.685 137.071,102.513 136.729,102.381 136.571 C 102.249 136.414,102.076 136.075,101.997 135.818 C 101.919 135.561,101.737 135.234,101.594 135.091 C 101.451 134.947,101.333 134.675,101.333 134.486 C 101.333 134.297,101.210 134.040,101.060 133.915 C 100.909 133.790,100.733 133.443,100.667 133.143 C 100.601 132.843,100.424 132.496,100.273 132.371 C 100.123 132.246,100.000 132.055,100.000 131.947 C 100.000 131.839,99.780 131.271,99.512 130.685 C 98.929 129.414,98.542 128.553,98.090 127.524 C 97.906 127.105,97.575 126.367,97.354 125.884 C 97.133 125.401,96.952 124.908,96.952 124.788 C 96.952 124.668,96.781 124.250,96.571 123.859 C 96.362 123.468,96.190 123.008,96.190 122.836 C 96.190 122.664,96.062 122.416,95.905 122.286 C 95.748 122.155,95.619 121.908,95.619 121.736 C 95.619 121.564,95.459 121.124,95.263 120.759 C 95.068 120.394,94.848 119.823,94.775 119.489 C 94.702 119.156,94.519 118.781,94.369 118.657 C 94.218 118.532,94.095 118.264,94.095 118.062 C 94.095 117.860,93.934 117.378,93.737 116.990 C 93.540 116.603,93.249 115.986,93.089 115.619 C 92.482 114.225,91.987 113.114,91.619 112.321 C 91.410 111.869,91.238 111.428,91.238 111.342 C 91.238 111.255,91.079 110.832,90.884 110.402 C 90.689 109.971,90.422 109.319,90.292 108.952 C 89.686 107.248,89.506 106.848,89.042 106.164 C 88.370 105.174,87.375 104.288,86.621 104.008 C 86.280 103.881,85.857 103.703,85.683 103.612 C 84.915 103.209,83.533 103.231,82.340 103.665 M85.517 104.207 C 86.682 104.457,88.349 105.871,88.935 107.108 C 89.542 108.388,90.095 109.747,90.095 109.956 C 90.095 110.062,90.276 110.544,90.497 111.027 C 90.718 111.510,91.049 112.248,91.233 112.667 C 91.417 113.086,91.701 113.729,91.864 114.095 C 92.028 114.462,92.394 115.319,92.679 116.000 C 92.964 116.681,93.364 117.624,93.569 118.095 C 93.774 118.567,94.053 119.210,94.189 119.524 C 94.325 119.838,94.627 120.567,94.860 121.143 C 95.093 121.719,95.435 122.533,95.620 122.952 C 95.805 123.371,96.175 124.273,96.443 124.956 C 96.710 125.639,97.062 126.453,97.225 126.765 C 97.388 127.078,97.522 127.473,97.523 127.643 C 97.523 127.814,97.652 128.060,97.810 128.190 C 97.967 128.321,98.095 128.561,98.095 128.723 C 98.095 129.034,98.829 130.614,100.945 134.857 C 102.937 138.853,103.821 140.474,106.727 145.471 C 110.378 151.749,110.620 152.153,112.008 154.286 C 112.314 154.757,112.626 155.269,112.700 155.424 C 112.926 155.893,116.420 161.025,117.372 162.286 C 118.254 163.453,119.357 164.951,119.619 165.336 C 119.776 165.567,120.551 166.582,121.342 167.592 C 124.454 171.569,124.833 174.170,122.660 176.645 C 120.074 179.591,116.346 178.801,112.990 174.595 C 112.402 173.857,111.804 173.121,111.663 172.960 C 111.429 172.693,110.342 171.235,108.574 168.814 C 108.208 168.314,107.559 167.390,107.132 166.762 C 106.705 166.133,105.868 164.909,105.273 164.040 C 104.678 163.172,104.190 162.425,104.190 162.380 C 104.190 162.307,103.225 160.814,102.256 159.389 C 102.063 159.105,101.905 158.825,101.905 158.768 C 101.905 158.710,101.624 158.256,101.281 157.760 C 100.938 157.263,100.552 156.643,100.422 156.381 C 100.293 156.119,100.037 155.673,99.855 155.389 C 99.517 154.862,95.501 147.951,94.731 146.571 C 92.405 142.401,88.593 134.600,87.052 130.857 C 86.815 130.281,86.460 129.457,86.263 129.027 C 86.066 128.596,85.905 128.121,85.905 127.970 C 85.905 127.819,85.828 127.614,85.734 127.514 C 85.640 127.415,85.330 126.733,85.045 126.000 C 84.761 125.267,84.357 124.281,84.148 123.810 C 83.939 123.338,83.657 122.695,83.522 122.381 C 83.042 121.271,82.513 120.083,82.021 119.012 C 81.748 118.416,81.524 117.805,81.524 117.654 C 81.524 117.503,81.395 117.273,81.238 117.143 C 81.081 117.012,80.952 116.765,80.952 116.593 C 80.952 116.421,80.781 115.960,80.571 115.569 C 80.362 115.178,80.190 114.750,80.190 114.617 C 80.190 114.484,80.019 114.055,79.810 113.665 C 79.600 113.274,79.429 112.828,79.429 112.674 C 79.429 112.520,79.290 111.988,79.122 111.490 C 77.648 107.150,81.070 103.253,85.517 104.207 M128.086 186.922 C 127.518 187.182,126.476 188.250,126.476 188.572 C 126.476 188.662,126.366 188.848,126.232 188.986 C 124.381 190.891,124.502 194.581,126.473 196.330 C 127.321 197.083,127.410 197.145,127.947 197.356 C 133.910 199.693,137.684 190.985,132.294 187.327 C 131.370 186.699,129.058 186.477,128.086 186.922 M131.592 187.567 C 135.350 189.887,135.417 194.790,131.717 196.742 C 128.291 198.550,124.145 194.543,125.732 190.957 C 127.227 187.577,129.489 186.269,131.592 187.567 " stroke="none" fill="#a6b3e3" fill-rule="evenodd"></path></g></svg>